<?xml version="1.0" encoding="UTF-8"?>
<svg version="1.1" xmlns="http://www.w3.org/2000/svg" width="657" height="389">
<path d="M0 0 C216.81 0 433.62 0 657 0 C657 128.37 657 256.74 657 389 C440.19 389 223.38 389 0 389 C0 260.63 0 132.26 0 0 Z " fill="#FEFEFE" transform="translate(0,0)"/>
<path d="M0 0 C0.76655914 -0.00511093 1.53311829 -0.01022186 2.32290649 -0.01548767 C4.84979121 -0.02935378 7.37640213 -0.02842861 9.90332031 -0.02612305 C11.66823426 -0.03001273 13.43314727 -0.03434796 15.19805908 -0.03910828 C18.89671868 -0.04656491 22.59528283 -0.04628407 26.29394531 -0.04101562 C31.015853 -0.0352337 35.73736681 -0.0521237 40.45920944 -0.0753603 C44.10538997 -0.0901519 47.75147696 -0.09096177 51.39768219 -0.08785057 C53.1374718 -0.08836145 54.87726696 -0.09355512 56.61702728 -0.10366249 C76.94876377 -0.20725484 76.94876377 -0.20725484 83.57128906 5.17700195 C84.09851563 5.84860352 84.62574219 6.52020508 85.16894531 7.2121582 C85.71421875 7.88118164 86.25949219 8.55020508 86.82128906 9.23950195 C90.07623657 13.93708548 90.52875492 17.63689244 90.52197266 23.31274414 C90.52868988 24.11977783 90.5354071 24.92681152 90.54232788 25.75830078 C90.56131846 28.42527433 90.56523296 31.09199624 90.56738281 33.7590332 C90.5738113 35.61745303 90.5805397 37.47587184 90.58755493 39.33428955 C90.59953127 43.23142847 90.60323552 47.12847874 90.60205078 51.02563477 C90.60184787 56.00670438 90.62911958 60.98720166 90.6635952 65.96813583 C90.68589436 69.80815208 90.68988736 73.64803142 90.68883133 77.48810577 C90.69118391 79.32363095 90.69998807 81.1591601 90.71549606 82.99462128 C90.73521214 85.56981259 90.72929594 88.14378084 90.71728516 90.71899414 C90.72852417 91.46940979 90.73976318 92.21982544 90.75134277 92.99298096 C90.68017963 99.03287777 88.9757147 104.29603046 84.81952477 108.80715561 C79.2356146 113.72096975 74.21812643 114.57476678 66.98803711 114.58105469 C65.76263718 114.59353996 65.76263718 114.59353996 64.51248169 114.60627747 C61.81849363 114.63032317 59.12474798 114.63914312 56.43066406 114.64575195 C54.55125356 114.65472275 52.67184377 114.66384468 50.79243469 114.67311096 C46.8541999 114.689589 42.91605 114.69729886 38.9777832 114.70019531 C33.94394772 114.70557638 28.91091572 114.7432501 23.87730694 114.78893948 C19.99525577 114.8187574 16.11339694 114.82591991 12.23124123 114.82692146 C10.37616104 114.83111473 8.5210798 114.84351302 6.6661129 114.86443901 C4.06449546 114.89145097 1.46472556 114.88649953 -1.13696289 114.87402344 C-1.89515823 114.88885773 -2.65335358 114.90369202 -3.43452454 114.91897583 C-9.25393708 114.83994848 -13.27450325 112.95765982 -17.76855469 109.2746582 C-23.1238132 103.19785641 -23.91579579 98.35293755 -23.96142578 90.32836914 C-23.96960327 89.53108902 -23.97778076 88.7338089 -23.98620605 87.91236877 C-24.01098624 85.27793109 -24.02755734 82.64354704 -24.04199219 80.0090332 C-24.04731586 79.10698402 -24.05263954 78.20493484 -24.05812454 77.27555084 C-24.08482438 72.50068513 -24.10420918 67.72584527 -24.11865234 62.95092773 C-24.13198821 59.00700674 -24.15983878 55.06360354 -24.20068359 51.11987305 C-24.25008334 46.34951673 -24.27478217 41.57962979 -24.28187943 36.80902863 C-24.28857779 34.9958 -24.30376294 33.18258127 -24.32777023 31.36949921 C-24.54161062 14.24249294 -24.54161062 14.24249294 -20.13687134 8.64459229 C-19.68532684 8.19251404 -19.23378235 7.74043579 -18.76855469 7.2746582 C-18.28067474 6.78213562 -17.7927948 6.28961304 -17.29013062 5.78216553 C-11.93100216 0.91284931 -7.03321715 -0.02433742 0 0 Z " fill="#000000" transform="translate(289.7685546875,44.725341796875)"/>
<path d="M0 0 C2.97 0 5.94 0 9 0 C9 128.37 9 256.74 9 389 C5.7 389 2.4 389 -1 389 C-0.67 260.63 -0.34 132.26 0 0 Z " fill="#EDEDED" transform="translate(648,0)"/>
<path d="M0 0 C1.67542976 0.28604898 3.34385343 0.61781233 5 1 C5.33 2.32 5.66 3.64 6 5 C7.423125 3.7625 7.423125 3.7625 8.875 2.5 C12.77082676 -0.27370222 15.91093015 -0.67056972 20.62890625 -0.43359375 C25.08991397 0.38217537 27.88442956 2.88442956 31 6 C31.763125 5.195625 32.52625 4.39125 33.3125 3.5625 C37.40845427 -0.34294477 41.06039884 -0.399106 46.48828125 -0.3515625 C50.62947086 0.22807524 52.2120757 1.93328327 55 5 C57.36058633 8.584706 57.23112465 11.72729176 57.1953125 15.953125 C57.1924826 16.61334656 57.18965271 17.27356812 57.18673706 17.95379639 C57.17558415 20.05271897 57.15048946 22.15120742 57.125 24.25 C57.11496384 25.67707715 57.1058391 27.10416102 57.09765625 28.53125 C57.07566111 32.02097328 57.04116536 35.51044423 57 39 C54.525 39.495 54.525 39.495 52 40 C49.6673253 36.50098795 49.74905323 35.04211356 49.7265625 30.90625 C49.7059375 29.71128906 49.6853125 28.51632813 49.6640625 27.28515625 C49.63802154 24.76178727 49.61979185 22.23832559 49.609375 19.71484375 C49.58617187 18.51988281 49.56296875 17.32492188 49.5390625 16.09375 C49.53084473 14.99740234 49.52262695 13.90105469 49.51416016 12.77148438 C49.25297408 9.90264856 49.25297408 9.90264856 47.14599609 8.15039062 C44.12750497 6.53228708 42.38621902 6.45820496 39 7 C36.11064449 8.59684332 34.78964383 9.34373387 33 12 C32.17888209 16.20576292 32.25193473 20.35151431 32.3125 24.625 C32.32141951 26.88800663 32.31808622 29.15110446 32.30078125 31.4140625 C32.31278564 32.4138916 32.32479004 33.4137207 32.3371582 34.44384766 C32 37 32 37 30.61401367 38.86083984 C29 40 29 40 26.875 39.8125 C25 39 25 39 24 37 C23.85775447 34.99243171 23.77375694 32.98059952 23.71875 30.96875 C23.68136719 29.76605469 23.64398438 28.56335938 23.60546875 27.32421875 C23.53515625 24.77473958 23.46484375 22.22526042 23.39453125 19.67578125 C23.35714844 18.47308594 23.31976563 17.27039063 23.28125 16.03125 C23.25095703 14.92330078 23.22066406 13.81535156 23.18945312 12.67382812 C23.1734551 10.02784404 23.1734551 10.02784404 22 8 C20.0909793 7.33895127 20.0909793 7.33895127 17.8125 7.0625 C17.05582031 6.92972656 16.29914063 6.79695312 15.51953125 6.66015625 C12.51772286 7.06505134 10.47833345 8.00762623 8.22436523 10.05004883 C5.43159959 14.49786921 6.11406591 20.23088059 6.125 25.3125 C6.104375 26.53001953 6.08375 27.74753906 6.0625 29.00195312 C6.01544067 32.00198568 5.99555554 34.99967407 6 38 C3.625 39.0625 3.625 39.0625 1 40 C0.34 39.67 -0.32 39.34 -1 39 C-1.02464849 33.60653012 -1.04283531 28.21309275 -1.05493164 22.81958008 C-1.05997231 20.98331125 -1.06680477 19.14704646 -1.07543945 17.31079102 C-1.08751672 14.67723599 -1.09323081 12.04373384 -1.09765625 9.41015625 C-1.10281754 8.58411392 -1.10797882 7.75807159 -1.11329651 6.90699768 C-1.11349205 4.93763632 -1.06204152 2.96838386 -1 1 C-0.67 0.67 -0.34 0.34 0 0 Z " fill="#0D0D0D" transform="translate(235,190)"/>
<path d="M0 0 C1 1 1 1 1.21875 3.97265625 C1.1514487 8.67533478 -0.1647669 12.95905602 -1.5 17.4375 C-1.73847656 18.26443359 -1.97695313 19.09136719 -2.22265625 19.94335938 C-2.806843 21.96464552 -3.40227439 23.98267605 -4 26 C-3.02417969 25.98839844 -2.04835938 25.97679688 -1.04296875 25.96484375 C0.22933594 25.95582031 1.50164062 25.94679688 2.8125 25.9375 C4.07707031 25.92589844 5.34164063 25.91429688 6.64453125 25.90234375 C10 26 10 26 13 27 C13.08636719 26.42894531 13.17273438 25.85789062 13.26171875 25.26953125 C14.71989594 16.8549124 16.97472789 6.37969988 23 0 C23.99 0 24.98 0 26 0 C25.82984375 0.53625 25.6596875 1.0725 25.484375 1.625 C22.99680919 9.6698937 20.99851481 17.82333536 19 26 C20.65 26.33 22.3 26.66 24 27 C24 27.66 24 28.32 24 29 C21.69 29.66 19.38 30.32 17 31 C16.86722656 31.81984375 16.73445313 32.6396875 16.59765625 33.484375 C16.42105469 34.56203125 16.24445313 35.6396875 16.0625 36.75 C15.88847656 37.81734375 15.71445312 38.8846875 15.53515625 39.984375 C15 43 15 43 14.48632812 44.9453125 C13.68548223 48.32880601 13.62402127 51.78865449 13.4375 55.25 C13.37272461 56.36761719 13.37272461 56.36761719 13.30664062 57.5078125 C13.20103275 59.338349 13.10005799 61.16915176 13 63 C8.25 62.25 8.25 62.25 6 60 C4.40511254 50.15249722 7.92622369 40.22132892 11 31 C2.585 31.495 2.585 31.495 -6 32 C-7.11375 35.3103125 -7.11375 35.3103125 -8.25 38.6875 C-8.49709717 39.4189624 -8.74419434 40.1504248 -8.9987793 40.90405273 C-10.82277133 46.34950312 -12.41356382 51.8456466 -13.91015625 57.390625 C-15.14856271 60.35569852 -16.23244912 61.42470788 -19 63 C-19.66 63 -20.32 63 -21 63 C-20.68504222 56.38588656 -19.4322429 50.44541925 -17.5625 44.125 C-17.34505127 43.38773682 -17.12760254 42.65047363 -16.90356445 41.89086914 C-15.85272615 38.44059696 -14.77322697 35.15057071 -13 32 C-14.65 32 -16.3 32 -18 32 C-17.25 30.125 -17.25 30.125 -16 28 C-15.35836914 27.73396973 -14.71673828 27.46793945 -14.05566406 27.19384766 C-11.19310622 25.53138829 -10.88411329 23.88181032 -9.859375 20.7734375 C-9.51132812 19.7421875 -9.16328125 18.7109375 -8.8046875 17.6484375 C-8.45664062 16.56820312 -8.10859375 15.48796875 -7.75 14.375 C-7.38648438 13.28703125 -7.02296875 12.1990625 -6.6484375 11.078125 C-5.75223998 8.38953245 -4.87012109 5.69712206 -4 3 C-9.49005495 6.11386192 -11.09799983 9.06534373 -13 15 C-13.34202694 17.87911042 -13.34202694 17.87911042 -13 20 C-17.875 19.125 -17.875 19.125 -19 18 C-19.51085283 13.74289312 -19.28152498 10.87080678 -16.9375 7.3125 C-12.40964845 1.64949693 -7.38519087 -0.73851909 0 0 Z " fill="#ECECEC" transform="translate(306,71)"/>
<path d="M0 0 C2.50134358 2.30064869 3.46979234 3.34687701 4.5625 6.625 C4.64608958 8.83589945 4.66981764 11.04926078 4.66015625 13.26171875 C4.65693359 14.56044922 4.65371094 15.85917969 4.65039062 17.19726562 C4.64203531 18.56901108 4.63357037 19.94075587 4.625 21.3125 C4.61998335 22.69596195 4.61542073 24.07942563 4.61132812 25.46289062 C4.59952529 28.85030395 4.58306019 32.23763033 4.5625 35.625 C2.0875 36.12 2.0875 36.12 -0.4375 36.625 C-1.4275 35.305 -2.4175 33.985 -3.4375 32.625 C-4.55125 33.285 -5.665 33.945 -6.8125 34.625 C-11.69805194 37.06343711 -16.064537 37.36609835 -21.4375 36.625 C-25.39805899 35.19245738 -26.22379561 34.00254443 -28.3125 30.3125 C-29.5184487 26.35966817 -29.70831054 24.52215233 -28.4375 20.625 C-26.09410172 16.59435496 -23.44218655 14.61779317 -19.0078125 13.1171875 C-13.55148981 12.07235975 -7.96520889 12.41538183 -2.4375 12.625 C-2.97727565 9.14951159 -2.97727565 9.14951159 -4.4375 5.625 C-9.01520696 3.44481612 -12.71444921 3.54932348 -17.6875 4.0625 C-24.24769332 4.71990334 -24.24769332 4.71990334 -26.4375 3.625 C-26.3125 1.8125 -26.3125 1.8125 -25.4375 -0.375 C-17.33715221 -5.58236644 -7.45008558 -6.3059653 0 0 Z " fill="#0A0A0A" transform="translate(330.4375,193.375)"/>
<path d="M0 0 C4.63555043 2.62160343 7.98818773 5.96775194 9.5859375 11.1171875 C9.92537717 14.15738627 9.98340291 17.0808124 9.5859375 20.1171875 C8.5859375 21.1171875 8.5859375 21.1171875 5.90209961 21.23071289 C4.73428955 21.22547607 3.56647949 21.22023926 2.36328125 21.21484375 C1.10322266 21.21162109 -0.15683594 21.20839844 -1.45507812 21.20507812 C-2.79557359 21.19672153 -4.13606838 21.18825657 -5.4765625 21.1796875 C-6.82096192 21.1746741 -8.1653631 21.17011092 -9.50976562 21.16601562 C-12.81124191 21.15418238 -16.11263053 21.13769721 -19.4140625 21.1171875 C-18.84630714 22.41577689 -18.25914587 23.70589191 -17.6640625 24.9921875 C-17.33921875 25.71148437 -17.014375 26.43078125 -16.6796875 27.171875 C-15.16701144 29.49691413 -13.99009417 30.15928947 -11.4140625 31.1171875 C-5.33632272 31.6166118 0.59805928 31.2202177 6.5859375 30.1171875 C7.2459375 30.4471875 7.9059375 30.7771875 8.5859375 31.1171875 C8.5859375 33.4296875 8.5859375 33.4296875 7.5859375 36.1171875 C0.76355747 39.85018789 -6.98367186 40.302 -14.5625 38.6484375 C-20.08628223 36.62224664 -23.21361893 32.57523862 -25.7265625 27.4296875 C-27.1533013 20.55540056 -27.23532949 13.64136742 -24.4140625 7.1171875 C-23.7540625 7.1171875 -23.0940625 7.1171875 -22.4140625 7.1171875 C-22.2078125 6.5396875 -22.0015625 5.9621875 -21.7890625 5.3671875 C-17.11503754 -2.28121697 -7.93646301 -2.90233113 0 0 Z " fill="#0D0D0D" transform="translate(214.4140625,190.8828125)"/>
<path d="M0 0 C2.5 0.125 2.5 0.125 3.5 1.125 C3.58700342 2.75972882 3.60701063 4.39814055 3.59765625 6.03515625 C3.59515869 6.925979 3.59266113 7.81680176 3.59008789 8.73461914 C3.57643188 10.44379517 3.57643188 10.44379517 3.5625 12.1875 C3.541875 15.796875 3.52125 19.40625 3.5 23.125 C13.07 23.125 22.64 23.125 32.5 23.125 C32.4604134 15.92977218 32.4604134 15.92977218 32.40991211 8.73461914 C32.40741455 7.84379639 32.40491699 6.95297363 32.40234375 6.03515625 C32.39710693 5.11871338 32.39187012 4.20227051 32.38647461 3.25805664 C32.5 1.125 32.5 1.125 33.5 0.125 C36 0 36 0 38.5 0.125 C40.12523741 1.75023741 39.62736616 3.55308164 39.62939453 5.79663086 C39.63254669 6.79113754 39.63569885 7.78564423 39.63894653 8.81028748 C39.6369223 9.89254105 39.63489807 10.97479462 39.6328125 12.08984375 C39.63376923 13.1934877 39.63472595 14.29713165 39.63571167 15.43421936 C39.63639372 17.77377377 39.6345377 20.11333006 39.63037109 22.45288086 C39.62502827 26.04350014 39.63031266 29.63399404 39.63671875 33.22460938 C39.63605787 35.49218778 39.63477651 37.7597661 39.6328125 40.02734375 C39.63483673 41.10757309 39.63686096 42.18780243 39.63894653 43.30076599 C39.63421829 44.79725426 39.63421829 44.79725426 39.62939453 46.32397461 C39.62859894 47.20476181 39.62780334 48.08554901 39.62698364 48.99302673 C39.5 51.125 39.5 51.125 38.5 53.125 C36.83388095 53.167721 35.16617115 53.16563832 33.5 53.125 C32.5 52.125 32.5 52.125 32.38647461 49.99194336 C32.39171143 49.07550049 32.39694824 48.15905762 32.40234375 47.21484375 C32.40484131 46.324021 32.40733887 45.43319824 32.40991211 44.51538086 C32.41901611 43.37593018 32.42812012 42.23647949 32.4375 41.0625 C32.458125 37.453125 32.47875 33.84375 32.5 30.125 C22.93 30.125 13.36 30.125 3.5 30.125 C3.53954176 36.94608473 3.53954176 36.94608473 3.59008789 43.76708984 C3.59258545 44.61480957 3.59508301 45.4625293 3.59765625 46.3359375 C3.60289307 47.20524902 3.60812988 48.07456055 3.61352539 48.97021484 C3.5 51.125 3.5 51.125 2.5 53.125 C0.83388095 53.167721 -0.83382885 53.16563832 -2.5 53.125 C-4.14087745 51.48412255 -3.62739755 49.60668938 -3.62939453 47.34570312 C-3.63254669 46.327948 -3.63569885 45.31019287 -3.63894653 44.26159668 C-3.6369223 43.15433228 -3.63489807 42.04706787 -3.6328125 40.90625 C-3.63376923 39.77803833 -3.63472595 38.64982666 -3.63571167 37.48742676 C-3.63639368 35.09659774 -3.63453797 32.70576689 -3.63037109 30.31494141 C-3.62502316 26.64090849 -3.63031543 22.96699783 -3.63671875 19.29296875 C-3.63605797 16.97656223 -3.63477682 14.66015578 -3.6328125 12.34375 C-3.63584885 10.68285339 -3.63584885 10.68285339 -3.63894653 8.98840332 C-3.63579437 7.97064819 -3.63264221 6.95289307 -3.62939453 5.90429688 C-3.62859894 5.00352417 -3.62780334 4.10275146 -3.62698364 3.17468262 C-3.43807075 0.12538071 -3.06879286 0.15343964 0 0 Z " fill="#050505" transform="translate(138.5,175.875)"/>
<path d="M0 0 C1.17469444 2.34938888 1.20034889 3.95073205 1.31640625 6.5703125 C1.35830078 7.46621094 1.40019531 8.36210937 1.44335938 9.28515625 C1.48267578 10.22230469 1.52199219 11.15945312 1.5625 12.125 C1.60568359 13.06988281 1.64886719 14.01476562 1.69335938 14.98828125 C1.79959072 17.32537092 1.90163176 19.6625683 2 22 C2.763125 21.360625 3.52625 20.72125 4.3125 20.0625 C9.14931511 16.35052562 14.11231091 16.34886927 20 17 C25.06002648 19.39201252 26.88684167 21.9106426 29 27 C29.34057617 30.25146484 29.34057617 30.25146484 29.29296875 33.7109375 C29.2784668 35.57685547 29.2784668 35.57685547 29.26367188 37.48046875 C29.23853516 38.76566406 29.21339844 40.05085938 29.1875 41.375 C29.16719727 43.33759766 29.16719727 43.33759766 29.14648438 45.33984375 C29.1112237 48.56031844 29.06193633 51.77994606 29 55 C27.35 55.66 25.7 56.32 24 57 C21.28935704 54.28935704 21.73379571 52.79208327 21.69140625 49.00390625 C21.66626953 47.80572266 21.64113281 46.60753906 21.61523438 45.37304688 C21.58013288 42.83663892 21.54887078 40.30017487 21.52148438 37.76367188 C21.49505859 36.56419922 21.46863281 35.36472656 21.44140625 34.12890625 C21.42795166 33.02619385 21.41449707 31.92348145 21.40063477 30.78735352 C21.23194016 27.99265597 21.23194016 27.99265597 19.59741211 26.17944336 C16.33057716 23.76738778 14.03597709 23.61192528 10 24 C6.9396667 25.7655769 4.49412245 27.50587755 2 30 C1.66157158 32.47210308 1.66157158 32.47210308 1.65625 35.33984375 C1.62660156 36.40267578 1.59695313 37.46550781 1.56640625 38.56054688 C1.54449219 39.67494141 1.52257812 40.78933594 1.5 41.9375 C1.45665041 44.1343043 1.40494531 46.33096413 1.34375 48.52734375 C1.32505859 49.50437256 1.30636719 50.48140137 1.28710938 51.48803711 C1 54 1 54 -1 57 C-4.875 56.125 -4.875 56.125 -6 55 C-6.09353163 53.31198015 -6.11744791 51.62004793 -6.11352539 49.92944336 C-6.11344986 48.84839828 -6.11337433 47.76735321 -6.11329651 46.65354919 C-6.10813522 45.4775264 -6.10297394 44.3015036 -6.09765625 43.08984375 C-6.0962413 41.89267227 -6.09482635 40.69550079 -6.09336853 39.46205139 C-6.08774979 35.62050934 -6.07519411 31.77902457 -6.0625 27.9375 C-6.05748741 25.34049563 -6.05292409 22.74349035 -6.04882812 20.14648438 C-6.03777427 13.76430321 -6.02101792 7.3821557 -6 1 C-4 0 -4 0 0 0 Z " fill="#080808" transform="translate(436,173)"/>
<path d="M0 0 C0.01458252 0.79696289 0.02916504 1.59392578 0.04418945 2.41503906 C0.11867475 6.02718124 0.21533512 9.63839974 0.3125 13.25 C0.33505859 14.50425781 0.35761719 15.75851563 0.38085938 17.05078125 C0.41630859 18.25605469 0.45175781 19.46132812 0.48828125 20.703125 C0.51446533 21.81333008 0.54064941 22.92353516 0.56762695 24.06738281 C1.041103 27.27878555 1.75430423 28.69316415 4 31 C7.64660716 31.9446449 11.4568177 31.71248376 14.88671875 30.12890625 C16.73616689 28.90638968 18.42976524 27.57023476 20 26 C20.13358147 24.17100475 20.20347722 22.33727786 20.24609375 20.50390625 C20.27896484 19.38822266 20.31183594 18.27253906 20.34570312 17.12304688 C20.40679788 14.7533502 20.46410255 12.38355272 20.51757812 10.01367188 C20.55173828 8.89669922 20.58589844 7.77972656 20.62109375 6.62890625 C20.6461499 5.59838135 20.67120605 4.56785645 20.69702148 3.50610352 C21 1 21 1 23 -1 C26.53571429 -0.46428571 26.53571429 -0.46428571 28 1 C28.08855161 3.6662603 28.11524673 6.30647114 28.09765625 8.97265625 C28.0962413 9.77029892 28.09482635 10.56794159 28.09336853 11.38975525 C28.08775316 13.94737435 28.07519812 16.50490718 28.0625 19.0625 C28.05748698 20.79231645 28.05292373 22.52213426 28.04882812 24.25195312 C28.03777875 28.50133553 28.02050386 32.75065312 28 37 C26.35 37.66 24.7 38.32 23 39 C21.515 36.525 21.515 36.525 20 34 C18.6078125 34.9590625 18.6078125 34.9590625 17.1875 35.9375 C12.15840333 39.19162137 7.85603028 39.70072157 2 39 C-2.3645523 36.97937394 -4.59867483 34.84857538 -6.41113281 30.37866211 C-7.7645795 24.91156797 -7.29758328 19.15416604 -7.1875 13.5625 C-7.17396484 12.25861328 -7.16042969 10.95472656 -7.14648438 9.61132812 C-7.11127334 6.40712378 -7.06202094 3.20377895 -7 0 C-4.3333581 -1.33332095 -2.83319697 -0.67102033 0 0 Z " fill="#050505" transform="translate(483,191)"/>
<path d="M0 0 C4.62679592 5.16722085 6.16182706 8.44099344 6.12890625 15.453125 C6.12568359 16.66162109 6.12246094 17.87011719 6.11914062 19.11523438 C6.10657227 21.00918945 6.10657227 21.00918945 6.09375 22.94140625 C6.08923828 24.21564453 6.08472656 25.48988281 6.08007812 26.80273438 C6.06827873 29.95317189 6.05181597 33.10351574 6.03125 36.25390625 C4.38125 36.91390625 2.73125 37.57390625 1.03125 38.25390625 C-1.54248701 35.68016924 -1.24259902 34.59773823 -1.3125 31.01953125 C-1.34214844 29.97023437 -1.37179687 28.9209375 -1.40234375 27.83984375 C-1.42425781 26.73898438 -1.44617188 25.638125 -1.46875 24.50390625 C-1.49709799 15.16936776 -1.49709799 15.16936776 -3.96875 6.25390625 C-10.01220326 5.09313754 -10.01220326 5.09313754 -15.84375 6.50390625 C-16.545 7.08140625 -17.24625 7.65890625 -17.96875 8.25390625 C-18.49702393 8.66616455 -19.02529785 9.07842285 -19.56958008 9.50317383 C-21.5559044 11.98859203 -21.40042659 13.86196378 -21.48046875 17.015625 C-21.53364258 18.69301758 -21.53364258 18.69301758 -21.58789062 20.40429688 C-21.61044922 21.57154297 -21.63300781 22.73878906 -21.65625 23.94140625 C-21.69041016 25.12025391 -21.72457031 26.29910156 -21.75976562 27.51367188 C-21.84232925 30.4269885 -21.91145322 33.34000091 -21.96875 36.25390625 C-23.61875 36.91390625 -25.26875 37.57390625 -26.96875 38.25390625 C-29.51440412 35.70825213 -29.2159901 34.06214911 -29.24664307 30.58984375 C-29.2425946 29.81898438 -29.23854614 29.048125 -29.234375 28.25390625 C-29.23628845 27.46242187 -29.2382019 26.6709375 -29.24017334 25.85546875 C-29.24153518 24.18098635 -29.23783882 22.5064934 -29.22949219 20.83203125 C-29.2187924 18.26408244 -29.22938725 15.69683322 -29.2421875 13.12890625 C-29.2408659 11.5039047 -29.23830351 9.87890359 -29.234375 8.25390625 C-29.23842346 7.48304688 -29.24247192 6.7121875 -29.24664307 5.91796875 C-29.19867132 0.48382757 -29.19867132 0.48382757 -26.96875 -1.74609375 C-24.96875 -1.62109375 -24.96875 -1.62109375 -22.96875 -0.74609375 C-21.71875 1.31640625 -21.71875 1.31640625 -20.96875 3.25390625 C-20.52144531 2.90457031 -20.07414062 2.55523437 -19.61328125 2.1953125 C-13.7756586 -2.19846318 -6.43261004 -5.70511248 0 0 Z " fill="#0A0A0A" transform="translate(375.96875,191.74609375)"/>
<path d="M0 0 C0.38218767 1.65614657 0.71395102 3.32457024 1 5 C0 6 0 6 -3.4921875 6.02734375 C-5.69457659 5.98909385 -7.89585994 5.9368951 -10.09765625 5.87304688 C-13.96100993 5.81323175 -15.70434192 5.80289461 -19 8 C-19.72965366 10.56282742 -19.72965366 10.56282742 -20 13 C-19.45472656 13.10957031 -18.90945313 13.21914062 -18.34765625 13.33203125 C-12.74464935 14.51009937 -7.3945613 16.087035 -2 18 C-2 18.66 -2 19.32 -2 20 C-1.01 20.33 -0.02 20.66 1 21 C3.28534229 24.24759168 3.54402208 27.11412803 3 31 C0.12454581 35.27210336 -2.13199558 37.44653389 -7 39 C-13.83388091 39.78656028 -19.91352009 39.26866513 -26 36 C-27.0625 33.375 -27.0625 33.375 -27 31 C-26 30 -26 30 -23.5 29.875 C-21 30 -21 30 -20 31 C-17.85692104 31.12537741 -15.70921114 31.17574364 -13.5625 31.1875 C-12.38816406 31.20167969 -11.21382813 31.21585938 -10.00390625 31.23046875 C-6.88503098 31.31899256 -6.88503098 31.31899256 -5 29 C-4.3574765 26.93125966 -4.3574765 26.93125966 -4 25 C-4.81791016 24.83564453 -4.81791016 24.83564453 -5.65234375 24.66796875 C-11.25535065 23.48990063 -16.6054387 21.912965 -22 20 C-22 19.34 -22 18.68 -22 18 C-22.99 17.67 -23.98 17.34 -25 17 C-27.2937488 13.74046223 -27.61115612 10.8961203 -27 7 C-24.63730963 2.97249577 -22.03653738 0.4877823 -17.8125 -1.5 C-11.79100807 -2.28970386 -5.77982709 -1.92660903 0 0 Z " fill="#0E0E0E" transform="translate(418,191)"/>
<path d="M0 0 C2.10698238 3.79746824 2.21423518 5.75017685 1 10 C-1.89090283 14.85671675 -5.82877321 17.08117744 -11 19 C-13.36700266 19.53491585 -15.5727435 19.79772862 -18 20 C-17.34 22.64 -16.68 25.28 -16 28 C-8.07916604 27.20467036 -3.37456483 24.88347282 2 19 C2.79083984 17.89785156 2.79083984 17.89785156 3.59765625 16.7734375 C4.06042969 16.18820313 4.52320313 15.60296875 5 15 C5.66 15 6.32 15 7 15 C5.98245299 20.98478308 1.18008612 25.40481504 -3.5625 28.875 C-9.10714623 31.43406749 -12.92991542 32.65547761 -19 31 C-22.00011095 28.95737127 -23.70421468 27.52963267 -24.41015625 23.87890625 C-24.72753414 15.69607619 -21.11705831 10.61738854 -15.75 4.76953125 C-10.78499473 -0.25088703 -6.75714424 -0.39747907 0 0 Z " fill="#E7E7E7" transform="translate(354,99)"/>
<path d="M0 0 C1.25425781 0.02707031 2.50851562 0.05414063 3.80078125 0.08203125 C4.75339844 0.11683594 5.70601563 0.15164062 6.6875 0.1875 C7.04598072 6.66303464 7.04598072 6.66303464 5.47265625 8.96484375 C1.18247178 11.85415166 -2.12419097 12.72859523 -7.296875 12.65625 C-9.82014468 12.0694431 -10.75080813 11.23119554 -12.3125 9.1875 C-12.8125 6.1875 -12.8125 6.1875 -12.3125 3.1875 C-8.30208063 -0.05255632 -5.04216539 -0.14136912 0 0 Z " fill="#F7F7F7" transform="translate(321.3125,211.8125)"/>
<path d="M0 0 C3.0625 1.625 3.0625 1.625 5 4 C5.33 5.98 5.66 7.96 6 10 C-1.26 10 -8.52 10 -16 10 C-11.93891391 0.52413246 -10.10801069 -1.4347894 0 0 Z " fill="#FCFCFC" transform="translate(211,196)"/>
<path d="M0 0 C2.5 1.1875 2.5 1.1875 4.5 3.1875 C5.17711599 10.1843652 5.17711599 10.1843652 2.8125 13.6875 C0.04877578 15.48018598 -1.26822531 15.76756212 -4.5 15.1875 C-6.71743569 13.92039389 -7.32766111 12.77146847 -8.04296875 10.34765625 C-8.4453556 8.20823308 -8.65769823 6.36023114 -8.5 4.1875 C-6.08431734 0.93882332 -4.07355115 -1.32390412 0 0 Z " fill="#F1F1F1" transform="translate(338.5,243.8125)"/>
<path d="M0 0 C3.44642857 1.72321429 3.44642857 1.72321429 4.875 3.9375 C5.26674433 8.05081542 5.43877991 10.68465576 3.75 14.4375 C1.875 15.9375 1.875 15.9375 -1.125 16.4375 C-4.125 15.9375 -4.125 15.9375 -6 14.4375 C-7.59673701 10.88919554 -7.96850629 7.75670902 -7.125 3.9375 C-4.83802074 1.33288473 -3.55734722 -0.10462786 0 0 Z " fill="#F5F5F5" transform="translate(248.125,243.0625)"/>
<path d="M0 0 C3.5625 0.3125 3.5625 0.3125 5.5 1.375 C7.49607267 5.01489722 6.92888913 8.76552366 6 12.6875 C3.67389737 15.31700732 0.91920889 15.0638549 -2.4375 15.3125 C-4.44226438 13.39126747 -5.36766331 11.8823269 -5.70703125 9.11328125 C-5.748174 6.79058577 -5.77927671 4.61172513 -5.4375 2.3125 C-3.4375 0.3125 -3.4375 0.3125 0 0 Z " fill="#F6F6F6" transform="translate(480.4375,243.6875)"/>
<path d="M0 0 C7 0 7 0 9.4375 1.0625 C11 3 11 3 11.5625 6.375 C11 10 11 10 8.875 12.9375 C6 15 6 15 0 15 C0 10.05 0 5.1 0 0 Z " fill="#E9E9E9" transform="translate(161,244)"/>
<path d="M0 0 C7.75 -0.125 7.75 -0.125 10 1 C10 3.33333333 10 5.66666667 10 8 C10.31802943 9.66965451 10.64984951 11.33678518 11 13 C7.60379269 15.08997373 4.94836905 15.2632246 1 15 C0 14 0 14 -0.09765625 10.83984375 C-0.08025391 8.90818359 -0.08025391 8.90818359 -0.0625 6.9375 C-0.05347656 5.64714844 -0.04445313 4.35679687 -0.03515625 3.02734375 C-0.02355469 2.02832031 -0.01195312 1.02929688 0 0 Z " fill="#373737" transform="translate(490,244)"/>
<path d="M0 0 C7 0 7 0 10 2 C11.50813008 8.67886179 11.50813008 8.67886179 10.0625 12.4375 C6.88080735 14.84787322 3.94958628 14.74101074 0 15 C0 10.05 0 5.1 0 0 Z " fill="#242425" transform="translate(440,244)"/>
<path d="M0 0 C2.64 0 5.28 0 8 0 C9.0625 1.8125 9.0625 1.8125 10 4 C9.67 4.99 9.34 5.98 9 7 C9.66 7.33 10.32 7.66 11 8 C11 9.65 11 11.3 11 13 C7.60379269 15.08997373 4.94836905 15.2632246 1 15 C0 14 0 14 -0.09765625 10.83984375 C-0.08025391 8.90818359 -0.08025391 8.90818359 -0.0625 6.9375 C-0.05347656 5.64714844 -0.04445313 4.35679687 -0.03515625 3.02734375 C-0.02355469 2.02832031 -0.01195312 1.02929688 0 0 Z " fill="#383838" transform="translate(394,244)"/>
<path d="M0 0 C7 0 7 0 9 1 C8.979375 1.969375 8.95875 2.93875 8.9375 3.9375 C8.64381501 6.87465895 8.64381501 6.87465895 10 8 C10.25 10.4375 10.25 10.4375 10 13 C7 15 7 15 0 15 C0 10.05 0 5.1 0 0 Z " fill="#1A1A1A" transform="translate(116,244)"/>
<path d="M0 0 C0.66 0 1.32 0 2 0 C2.66 2.64 3.32 5.28 4 8 C4.99 5.36 5.98 2.72 7 0 C7.99 0.33 8.98 0.66 10 1 C11.03131735 3.60862624 11.43057449 6.24047635 12 9 C12.99 6.03 13.98 3.06 15 0 C15.66 0 16.32 0 17 0 C16.01 4.95 15.02 9.9 14 15 C13.01 15 12.02 15 11 15 C10.01 12.03 9.02 9.06 8 6 C7.34 8.97 6.68 11.94 6 15 C5.01 15 4.02 15 3 15 C2.49564306 13.0636296 1.99666126 11.12585854 1.5 9.1875 C1.2215625 8.10855469 0.943125 7.02960938 0.65625 5.91796875 C0 3 0 3 0 0 Z " fill="#343434" transform="translate(363,244)"/>
<path d="M0 0 C6.93359375 -0.09765625 6.93359375 -0.09765625 9 0 C10 1 10 1 10.1875 3.375 C10 6 10 6 8 9 C8.99 10.98 9.98 12.96 11 15 C10.01 15 9.02 15 8 15 C7.566875 14.030625 7.13375 13.06125 6.6875 12.0625 C5.2985139 8.72268235 5.2985139 8.72268235 2 8 C2 10.31 2 12.62 2 15 C1.34 15 0.68 15 0 15 C0 10.05 0 5.1 0 0 Z " fill="#1F1F1F" transform="translate(228,244)"/>
<path d="M0 0 C6.0546875 -0.1953125 6.0546875 -0.1953125 8 0 C8.66 0.66 9.32 1.32 10 2 C9.6730244 4.61580479 9.17960932 6.64078137 8 9 C8.93446535 11.03144641 9.93224776 13.03533587 11 15 C10.01 15 9.02 15 8 15 C7.566875 14.030625 7.13375 13.06125 6.6875 12.0625 C5.2985139 8.72268235 5.2985139 8.72268235 2 8 C2 10.31 2 12.62 2 15 C1.34 14.67 0.68 14.34 0 14 C0 9.38 0 4.76 0 0 Z " fill="#2A2A2A" transform="translate(346,244)"/>
<path d="M0 0 C6.93359375 -0.09765625 6.93359375 -0.09765625 9 0 C10 1 10 1 10.1875 3.9375 C10 7 10 7 8 9 C4.875 9.125 4.875 9.125 2 9 C2 10.98 2 12.96 2 15 C1.34 15 0.68 15 0 15 C0 10.05 0 5.1 0 0 Z " fill="#050505" transform="translate(215,244)"/>
<path d="M0 0 C0.99 0.33 1.98 0.66 3 1 C3.73046875 3.06640625 3.73046875 3.06640625 4.1875 5.5625 C4.34605469 6.38878906 4.50460937 7.21507812 4.66796875 8.06640625 C4.77753906 8.70449219 4.88710938 9.34257812 5 10 C5.66 10 6.32 10 7 10 C7.66 6.7 8.32 3.4 9 0 C9.99 0 10.98 0 12 0 C12 4.95 12 9.9 12 15 C11.34 14.67 10.68 14.34 10 14 C9.375 10.9375 9.375 10.9375 9 8 C7.515 10.475 7.515 10.475 6 13 C4 11 4 11 3 8 C2.67 10.31 2.34 12.62 2 15 C1.34 15 0.68 15 0 15 C0 10.05 0 5.1 0 0 Z " fill="#3C3D3F" transform="translate(459,244)"/>
<path d="M0 0 C1.32 0.33 2.64 0.66 4 1 C7 6.03571429 7 6.03571429 7 9 C7.66 9 8.32 9 9 9 C9 6.03 9 3.06 9 0 C9.66 0 10.32 0 11 0 C11 4.95 11 9.9 11 15 C6.18088483 13.39362828 5.29335557 9.4007634 3 5 C2.67 8.3 2.34 11.6 2 15 C1.34 14.67 0.68 14.34 0 14 C0 9.38 0 4.76 0 0 Z " fill="#393939" transform="translate(181,244)"/>
<path d="M0 0 C4.98777148 2.49388574 5.51258849 4.20284924 8 9 C8.33 6.03 8.66 3.06 9 0 C9.66 0 10.32 0 11 0 C11 4.95 11 9.9 11 15 C6.01222852 12.50611426 5.48741151 10.79715076 3 6 C2.67 8.97 2.34 11.94 2 15 C1.34 15 0.68 15 0 15 C0 10.05 0 5.1 0 0 Z " fill="#2C2C2C" transform="translate(425,244)"/>
<path d="M0 0 C-0.41681873 4.8628852 -2.36984145 6.86486307 -6 10 C-10.44827586 13 -10.44827586 13 -13 13 C-12.38517439 9.62225438 -11.14304154 7.52381697 -9.0625 4.8125 C-8.53785156 4.11769531 -8.01320313 3.42289062 -7.47265625 2.70703125 C-4.97022606 -0.1936637 -3.99523963 0 0 0 Z " fill="#060606" transform="translate(351,103)"/>
<path d="M0 0 C0.66 0 1.32 0 2 0 C2.83739781 2.1234016 3.66980283 4.2487728 4.5 6.375 C4.9640625 7.55835938 5.428125 8.74171875 5.90625 9.9609375 C7 13 7 13 7 15 C6.34 15 5.68 15 5 15 C4.67 13.35 4.34 11.7 4 10 C2.02 10.33 0.04 10.66 -2 11 C-2.33 12.32 -2.66 13.64 -3 15 C-3.66 15 -4.32 15 -5 15 C-4.5188509 9.22621075 -2.81532819 5.04140164 0 0 Z " fill="#6F6F6F" transform="translate(416,244)"/>
<path d="M0 0 C3.44642857 1.72321429 3.44642857 1.72321429 4.875 3.9375 C5.26674433 8.05081542 5.43877991 10.68465576 3.75 14.4375 C1.875 15.9375 1.875 15.9375 -1.125 16.4375 C-4.125 15.9375 -4.125 15.9375 -6 14.4375 C-7.59673701 10.88919554 -7.96850629 7.75670902 -7.125 3.9375 C-4.83802074 1.33288473 -3.55734722 -0.10462786 0 0 Z M-3.125 1.9375 C-5.28205515 3.6939331 -5.28205515 3.6939331 -5.390625 5.8125 C-5.38546875 6.51375 -5.3803125 7.215 -5.375 7.9375 C-5.38015625 8.63875 -5.3853125 9.34 -5.390625 10.0625 C-5.28205515 12.1810669 -5.28205515 12.1810669 -3.125 13.9375 C-0.58309998 14.1875773 -0.58309998 14.1875773 1.875 13.9375 C3.46367866 12.34882134 3.08294039 10.69060484 3.125 8.5 C3.15078125 7.69691406 3.1765625 6.89382812 3.203125 6.06640625 C3.09484375 5.36386719 2.9865625 4.66132813 2.875 3.9375 C0.05990007 1.6601499 0.05990007 1.6601499 -3.125 1.9375 Z " fill="#282828" transform="translate(248.125,243.0625)"/>
<path d="M0 0 C-4 1 -4 1 -8 2 C-8 4.64 -8 7.28 -8 10 C-6.02 10.66 -4.04 11.32 -2 12 C-2 10.68 -2 9.36 -2 8 C-2.99 8 -3.98 8 -5 8 C-5 7.34 -5 6.68 -5 6 C-3.35 6 -1.7 6 0 6 C0 8.31 0 10.62 0 13 C-2.79870027 14.39935013 -4.90498792 14.25265405 -8 14 C-9.875 13 -9.875 13 -11 11 C-11.64739884 4.20231214 -11.64739884 4.20231214 -9.6875 0.5625 C-6.16185776 -2.70198355 -4.01457548 -1.84453468 0 0 Z " fill="#313233" transform="translate(207,245)"/>
<path d="M0 0 C3.5625 0.3125 3.5625 0.3125 5.5 1.375 C7.49607267 5.01489722 6.92888913 8.76552366 6 12.6875 C3.67389737 15.31700732 0.91920889 15.0638549 -2.4375 15.3125 C-4.44226438 13.39126747 -5.36766331 11.8823269 -5.70703125 9.11328125 C-5.748174 6.79058577 -5.77927671 4.61172513 -5.4375 2.3125 C-3.4375 0.3125 -3.4375 0.3125 0 0 Z M-1.4375 1.3125 C-3.88326827 4.98115241 -3.67357254 6.98450343 -3.4375 11.3125 C-3.1075 11.9725 -2.7775 12.6325 -2.4375 13.3125 C-0.02104218 13.47937448 -0.02104218 13.47937448 2.5625 13.3125 C4.93448957 11.37647953 4.93448957 11.37647953 4.8125 7.875 C4.85059647 4.20829382 4.85059647 4.20829382 2.5625 1.3125 C1.2425 1.3125 -0.0775 1.3125 -1.4375 1.3125 Z " fill="#242424" transform="translate(480.4375,243.6875)"/>
<path d="M0 0 C2.5 1.1875 2.5 1.1875 4.5 3.1875 C5.17711599 10.1843652 5.17711599 10.1843652 2.8125 13.6875 C0.04877578 15.48018598 -1.26822531 15.76756212 -4.5 15.1875 C-6.71743569 13.92039389 -7.32766111 12.77146847 -8.04296875 10.34765625 C-8.4453556 8.20823308 -8.65769823 6.36023114 -8.5 4.1875 C-6.08431734 0.93882332 -4.07355115 -1.32390412 0 0 Z M-5.3125 2.25 C-7.19427526 5.3202649 -6.24105071 7.79101758 -5.5 11.1875 C-5.17 11.8475 -4.84 12.5075 -4.5 13.1875 C-2.08354218 13.35437448 -2.08354218 13.35437448 0.5 13.1875 C2.87198957 11.25147953 2.87198957 11.25147953 2.75 7.75 C2.78809647 4.08329382 2.78809647 4.08329382 0.5 1.1875 C-3.27502919 0.85035367 -3.27502919 0.85035367 -5.3125 2.25 Z " fill="#1E1E1E" transform="translate(338.5,243.8125)"/>
<path d="M0 0 C7 0 7 0 9.4375 1.0625 C11 3 11 3 11.5625 6.375 C11 10 11 10 8.875 12.9375 C6 15 6 15 0 15 C0 10.05 0 5.1 0 0 Z M2 1 C2 4.96 2 8.92 2 13 C3.65 13 5.3 13 7 13 C9.37198957 11.06397953 9.37198957 11.06397953 9.25 7.5625 C9.28809647 3.89579382 9.28809647 3.89579382 7 1 C5.35 1 3.7 1 2 1 Z " fill="#252525" transform="translate(161,244)"/>
<path d="M0 0 C1.98 0.66 3.96 1.32 6 2 C7.33827893 8.44807122 7.33827893 8.44807122 5.8125 10.9375 C4 12 4 12 0 12 C0 8.04 0 4.08 0 0 Z " fill="#F4F4F5" transform="translate(442,245)"/>
<path d="M0 0 C2.97 0 5.94 0 9 0 C9 0.33 9 0.66 9 1 C6.69 1 4.38 1 2 1 C2 2.65 2 4.3 2 6 C3.98 6 5.96 6 8 6 C8 6.66 8 7.32 8 8 C6.02 8 4.04 8 2 8 C2 9.65 2 11.3 2 13 C4.31 13 6.62 13 9 13 C9 13.66 9 14.32 9 15 C6.03 15 3.06 15 0 15 C0 10.05 0 5.1 0 0 Z " fill="#232323" transform="translate(382,244)"/>
<path d="M0 0 C2.97 0 5.94 0 9 0 C9 0.33 9 0.66 9 1 C6.69 1 4.38 1 2 1 C2 2.65 2 4.3 2 6 C3.98 6 5.96 6 8 6 C7.67 6.66 7.34 7.32 7 8 C5.35 8 3.7 8 2 8 C2 9.65 2 11.3 2 13 C4.31 13 6.62 13 9 13 C9 13.66 9 14.32 9 15 C6.03 15 3.06 15 0 15 C0 10.05 0 5.1 0 0 Z " fill="#232323" transform="translate(521,244)"/>
<path d="M0 0 C2.97 0 5.94 0 9 0 C9 0.33 9 0.66 9 1 C6.69 1 4.38 1 2 1 C2 2.65 2 4.3 2 6 C3.65 6 5.3 6 7 6 C7 6.33 7 6.66 7 7 C5.35 7 3.7 7 2 7 C2 8.98 2 10.96 2 13 C4.31 13 6.62 13 9 13 C9 13.66 9 14.32 9 15 C6.03 15 3.06 15 0 15 C0 10.05 0 5.1 0 0 Z " fill="#0D0D0D" transform="translate(267,244)"/>
<path d="M0 0 C1.98 0 3.96 0 6 0 C4.02 0.99 4.02 0.99 2 2 C2 2.99 2 3.98 2 5 C2.804375 5.309375 3.60875 5.61875 4.4375 5.9375 C7 7 7 7 8 8 C8.1875 10.4375 8.1875 10.4375 8 13 C6 15 6 15 2.875 15.125 C1.451875 15.063125 1.451875 15.063125 0 15 C-0.33 14.01 -0.66 13.02 -1 12 C1.31 12.33 3.62 12.66 6 13 C6 11.68 6 10.36 6 9 C4.824375 8.566875 4.824375 8.566875 3.625 8.125 C1 7 1 7 -1 5 C-0.625 2.375 -0.625 2.375 0 0 Z " fill="#1F1F1F" transform="translate(304,244)"/>
<path d="M0 0 C0.66 0 1.32 0 2 0 C2.66 2.64 3.32 5.28 4 8 C4.66 6.35 5.32 4.7 6 3 C6.66 3.33 7.32 3.66 8 4 C7.34 7.63 6.68 11.26 6 15 C5.01 15 4.02 15 3 15 C2.49564306 13.0636296 1.99666126 11.12585854 1.5 9.1875 C1.2215625 8.10855469 0.943125 7.02960938 0.65625 5.91796875 C0 3 0 3 0 0 Z " fill="#373737" transform="translate(363,244)"/>
<path d="M0 0 C-2 1 -2 1 -4.5625 1.5 C-6.93765107 1.75411948 -6.93765107 1.75411948 -8 3 C-8.24733137 7.14276875 -8.24733137 7.14276875 -7 11 C-4.69 11 -2.38 11 0 11 C0 11.66 0 12.32 0 13 C-3.25 13.8125 -3.25 13.8125 -7 14 C-10.01097653 11.45225063 -10.88043764 9.83693651 -11.4375 5.9375 C-10.95374115 2.68940486 -10.30588726 1.30588726 -8 -1 C-4.37673261 -2.2077558 -3.35853631 -1.54311128 0 0 Z " fill="#272727" transform="translate(289,245)"/>
<path d="M0 0 C2.97 0 5.94 0 9 0 C9 0.33 9 0.66 9 1 C6.69 1 4.38 1 2 1 C2 2.65 2 4.3 2 6 C3.98 6 5.96 6 8 6 C8 6.66 8 7.32 8 8 C6.02 8 4.04 8 2 8 C2 10.31 2 12.62 2 15 C1.34 15 0.68 15 0 15 C0 10.05 0 5.1 0 0 Z " fill="#0E0E0E" transform="translate(320,244)"/>
<path d="M0 0 C2.64 0 5.28 0 8 0 C8.66 1.32 9.32 2.64 10 4 C9.34 4.66 8.68 5.32 8 6 C7.67 4.68 7.34 3.36 7 2 C5.35 1.67 3.7 1.34 2 1 C2 2.65 2 4.3 2 6 C3.65 6 5.3 6 7 6 C7 6.33 7 6.66 7 7 C5.35 7 3.7 7 2 7 C2 9.31 2 11.62 2 14 C1.34 14 0.68 14 0 14 C0 9.38 0 4.76 0 0 Z " fill="#272727" transform="translate(394,244)"/>
<path d="M0 0 C0.66 0 1.32 0 2 0 C2 4.29 2 8.58 2 13 C4.31 13 6.62 13 9 13 C9 13.66 9 14.32 9 15 C6.03 15 3.06 15 0 15 C0 10.05 0 5.1 0 0 Z " fill="#252525" transform="translate(150,244)"/>
<path d="M0 0 C0.66 0 1.32 0 2 0 C2 4.29 2 8.58 2 13 C4.31 13 6.62 13 9 13 C9 13.66 9 14.32 9 15 C6.03 15 3.06 15 0 15 C0 10.05 0 5.1 0 0 Z " fill="#111111" transform="translate(510,244)"/>
<path d="M0 0 C0.66 0 1.32 0 2 0 C2 4.95 2 9.9 2 15 C-1 14 -1 14 -2.25 12.125 C-3 10 -3 10 -2 7 C-2 7.66 -2 8.32 -2 9 C-1.34 9 -0.68 9 0 9 C0 6.03 0 3.06 0 0 Z " fill="#333433" transform="translate(190,244)"/>
<path d="M0 0 C0.66 0 1.32 0 2 0 C2.05406122 1.93719378 2.09282025 3.87481921 2.125 5.8125 C2.14820313 6.89144531 2.17140625 7.97039062 2.1953125 9.08203125 C2 12 2 12 0 15 C-2.625 15.1875 -2.625 15.1875 -5 15 C-5.33 14.01 -5.66 13.02 -6 12 C-3.03 12.495 -3.03 12.495 0 13 C0 8.71 0 4.42 0 0 Z " fill="#131313" transform="translate(261,244)"/>
<path d="M0 0 C0.66 0 1.32 0 2 0 C2.83739781 2.1234016 3.66980283 4.2487728 4.5 6.375 C4.9640625 7.55835938 5.428125 8.74171875 5.90625 9.9609375 C7 13 7 13 7 15 C6.34 15 5.68 15 5 15 C4.67 13.35 4.34 11.7 4 10 C3.01 9.67 2.02 9.34 1 9 C1.66 9 2.32 9 3 9 C2.34 7.35 1.68 5.7 1 4 C0.34 4 -0.32 4 -1 4 C-0.67 2.68 -0.34 1.36 0 0 Z " fill="#232423" transform="translate(416,244)"/>
<path d="M0 0 C1.65 0 3.3 0 5 0 C5.38218767 1.65614657 5.71395102 3.32457024 6 5 C5 6 5 6 2.4375 6.0625 C1.2309375 6.0315625 1.2309375 6.0315625 0 6 C0 4.02 0 2.04 0 0 Z " fill="#D6D6D6" transform="translate(230,245)"/>
<path d="M0 0 C1.65 0 3.3 0 5 0 C5.38218767 1.65614657 5.71395102 3.32457024 6 5 C5 6 5 6 2.4375 6.0625 C1.2309375 6.0315625 1.2309375 6.0315625 0 6 C0 4.02 0 2.04 0 0 Z " fill="#E7E8E8" transform="translate(217,245)"/>
<path d="M0 0 C1.65 0 3.3 0 5 0 C5.38218767 1.65614657 5.71395102 3.32457024 6 5 C5 6 5 6 2.4375 6.0625 C1.2309375 6.0315625 1.2309375 6.0315625 0 6 C0 4.02 0 2.04 0 0 Z " fill="#DFDFDF" transform="translate(348,245)"/>
<path d="M0 0 C2.33294775 -0.04241723 4.66702567 -0.04092937 7 0 C8 1 8 1 8.25 3.4375 C8.1675 4.283125 8.085 5.12875 8 6 C4.3558226 8.4294516 2.28758728 8.16179575 -2 8 C0.35953094 5.64046906 1.77895617 5.50858587 5 5 C5 4.01 5 3.02 5 2 C3.35 1.67 1.7 1.34 0 1 C0 0.67 0 0.34 0 0 Z " fill="#3F3F3F" transform="translate(118,251)"/>
<path d="M0 0 C1.98 0 3.96 0 6 0 C6.5625 1.9375 6.5625 1.9375 7 4 C6 5 6 5 2.9375 5.0625 C1.4834375 5.0315625 1.4834375 5.0315625 0 5 C0 3.35 0 1.7 0 0 Z " fill="#EFEFEF" transform="translate(396,252)"/>
<path d="M0 0 C1.98 0 3.96 0 6 0 C5.67 1.65 5.34 3.3 5 5 C3.35 5 1.7 5 0 5 C0 3.35 0 1.7 0 0 Z " fill="#F8F8F8" transform="translate(493,252)"/>
<path d="M0 0 C1.32 0.66 2.64 1.32 4 2 C4.36923077 8.4 4.36923077 8.4 2.5 11.4375 C2.005 11.953125 1.51 12.46875 1 13 C-0.32 12.67 -1.64 12.34 -3 12 C-1.68 11.34 -0.36 10.68 1 10 C1.11320856 4.91696314 1.11320856 4.91696314 0 0 Z " fill="#131313" transform="translate(168,245)"/>
<path d="M0 0 C0.99 0.33 1.98 0.66 3 1 C3.125 3.875 3.125 3.875 3 7 C1 9 1 9 -2.125 9.125 C-3.548125 9.063125 -3.548125 9.063125 -5 9 C-5 8.34 -5 7.68 -5 7 C-3.35 6.67 -1.7 6.34 0 6 C0 4.02 0 2.04 0 0 Z " fill="#2E2E2E" transform="translate(222,244)"/>
<path d="M0 0 C1.65 0 3.3 0 5 0 C5.5625 1.9375 5.5625 1.9375 6 4 C5 5 5 5 2.4375 5.0625 C1.2309375 5.0315625 1.2309375 5.0315625 0 5 C0 3.35 0 1.7 0 0 Z " fill="#FCFCFC" transform="translate(118,252)"/>
<path d="M0 0 C1.65 0 3.3 0 5 0 C5.5625 1.9375 5.5625 1.9375 6 4 C5 5 5 5 2.4375 5.0625 C1.2309375 5.0315625 1.2309375 5.0315625 0 5 C0 3.35 0 1.7 0 0 Z " fill="#E3E3E3" transform="translate(396,245)"/>
<path d="M0 0 C2.97 0.495 2.97 0.495 6 1 C5.67 2.32 5.34 3.64 5 5 C3.35 5 1.7 5 0 5 C0 3.35 0 1.7 0 0 Z " fill="#DDDDDD" transform="translate(492,245)"/>
<path d="M0 0 C-4 1 -4 1 -8 2 C-8.99 5.465 -8.99 5.465 -10 9 C-10.33 9 -10.66 9 -11 9 C-11.2253459 5.69492676 -11.34500438 3.60786486 -9.6875 0.6875 C-6.2451324 -2.7548676 -4.04203344 -1.8571505 0 0 Z " fill="#1F1F20" transform="translate(207,245)"/>
<path d="M0 0 C1.65 0 3.3 0 5 0 C4.67 1.65 4.34 3.3 4 5 C2.68 5 1.36 5 0 5 C0 3.35 0 1.7 0 0 Z " fill="#ECECEC" transform="translate(118,245)"/>
<path d="M0 0 C0.66 0.33 1.32 0.66 2 1 C1.67 2.65 1.34 4.3 1 6 C-3.455 6.495 -3.455 6.495 -8 7 C-5.64046906 4.64046906 -4.22104383 4.50858587 -1 4 C-0.67 2.68 -0.34 1.36 0 0 Z " fill="#292929" transform="translate(499,252)"/>
<path d="M0 0 C0.99 0 1.98 0 3 0 C3 4.95 3 9.9 3 15 C2.67 15 2.34 15 2 15 C1.93941406 14.25234375 1.87882812 13.5046875 1.81640625 12.734375 C1.73261719 11.74953125 1.64882813 10.7646875 1.5625 9.75 C1.48128906 8.77546875 1.40007812 7.8009375 1.31640625 6.796875 C1.04925416 4.43538247 0.64628032 2.28098935 0 0 Z " fill="#0D0E0F" transform="translate(468,244)"/>
<path d="M0 0 C1.98 0.99 1.98 0.99 4 2 C3.01 2.33 2.02 2.66 1 3 C1 6.96 1 10.92 1 15 C0.67 15 0.34 15 0 15 C0 10.05 0 5.1 0 0 Z " fill="#060606" transform="translate(425,244)"/>
<path d="M0 0 C1.9375 0.75 1.9375 0.75 3.9375 2.75 C1.9375 3.75 1.9375 3.75 -0.4375 3.125 C-3.13641725 2.45250504 -3.13641725 2.45250504 -5.375 4.1875 C-5.931875 4.703125 -6.48875 5.21875 -7.0625 5.75 C-5.59770994 2.36971526 -4.20066121 -0.50917106 0 0 Z " fill="#2A2A2A" transform="translate(248.0625,243.25)"/>
<path d="M0 0 C0.33 0 0.66 0 1 0 C2 6.625 2 6.625 2 10 C0.5 8.875 0.5 8.875 -1 7 C-1.25 3.875 -1.25 3.875 -1 1 C-0.67 0.67 -0.34 0.34 0 0 Z " fill="#1E1E1E" transform="translate(242,248)"/>
<path d="M0 0 C0.99 0.33 1.98 0.66 3 1 C3.33 3.97 3.66 6.94 4 10 C0 4 0 4 0 0 Z " fill="#0E0E0E" transform="translate(370,244)"/>
<path d="M0 0 C1.11375 0.556875 1.11375 0.556875 2.25 1.125 C2.25 2.115 2.25 3.105 2.25 4.125 C1.59 3.795 0.93 3.465 0.25 3.125 C0.25 2.465 0.25 1.805 0.25 1.125 C-1.73 1.785 -3.71 2.445 -5.75 3.125 C-6.08 2.465 -6.41 1.805 -6.75 1.125 C-4.02098495 -0.69434337 -3.21400584 -1.02263822 0 0 Z " fill="#2D2D2D" transform="translate(338.75,243.875)"/>
<path d="M0 0 C0.66 0 1.32 0 2 0 C2.66 2.31 3.32 4.62 4 7 C3.34 7 2.68 7 2 7 C0 4 0 4 -1 1 C-0.67 0.67 -0.34 0.34 0 0 Z " fill="#1D1D1D" transform="translate(416,244)"/>
</svg>
